<?xml version="1.0" ?><svg height="100px" version="1.1" viewBox="0 0 100 100" width="100px" xmlns="http://www.w3.org/2000/svg" xmlns:sketch="http://www.bohemiancoding.com/sketch/ns" xmlns:xlink="http://www.w3.org/1999/xlink"><title/><desc/><defs/><g fill="none" fill-rule="evenodd" id="Page-1" stroke="none" stroke-width="1"><g fill="#404040" id="kden-document-google-drive"><path d="M58.9926339,32 C57.3389342,32 56,30.6601521 56,29.0073661 L56,4 L19.6656805,4 C17.6411811,4 16,5.63894638 16,7.66768662 L16,90.3323134 C16,92.3579208 17.6472148,94 19.6800858,94 L80.3199142,94 C82.3523695,94 84,92.3473338 84,90.3223331 L84,32 L58.9926339,32 L58.9926339,32 Z M64.9818182,64 L54.9454545,46 L45.0545455,46 L55.0909091,64 L64.9818182,64 L64.9818182,64 Z M46.6545455,66 L41.7090909,74 L60.7636364,74 L65.7090909,66 L46.6545455,66 L46.6545455,66 Z M43.7454545,48.2105263 L34.2909091,65.1578947 L39.2363636,74 L48.8363636,57.0526316 L43.7454545,48.2105263 L43.7454545,48.2105263 Z M84,28 L62.0049466,28 C60.8976452,28 60,27.1029738 60,25.9950534 L60,4 L84,28 L84,28 Z" id="www.kden.ru"/></g></g></svg>